<svg xmlns="http://www.w3.org/2000/svg" viewBox="0 0 551.26 697.11"><defs><style>.cls-1{fill:#2d2c29;}.cls-2{fill:#13110f;}.cls-3{fill:#4a4847;}.cls-4{fill:#ffd556;}.cls-5{fill:#fffffd;}</style></defs><title>blackCat</title><g id="Layer_2" data-name="Layer 2"><g id="Layer_1-2" data-name="Layer 1"><path class="cls-1" d="M199.94,142.46c25-50.64,79-85.62,135.48-87.69a441.85,441.85,0,0,1,3,53.07c-.05,10.27-.47,20.64-3.05,30.58-5.88,22.63-22.27,40.81-38.11,58Z"/><path class="cls-2" d="M458.68,375.89c-1.47,10.41,8.15,20.16,18.61,21.28s20.7-4.66,27.64-12.56c11.3-12.84,15.32-31,13.45-48s-9.1-33-18.05-47.59c-10.79-17.59-24.13-33.48-35.51-50.7S443.88,202,442,181.45s5.07-42.8,21.56-55.21c8.18-6.15,18.15-9.56,28.22-11.37,13.43-2.42,27.87-2,39.92,4.41s21,19.71,19.4,33.25c-.83,7-5.43,14.33-12.43,15.12s-12.82-5-18.18-9.63a74.76,74.76,0,0,0-28.89-15.39c-2.23-.61-4.7-1.1-6.76-.06a9.45,9.45,0,0,0-3.56,3.94,56.22,56.22,0,0,0-7.21,36.91c3.86,23.67,23.23,41.12,38.79,59.38,14.21,16.67,26.1,35.74,31.82,56.88,13.38,49.42-12.54,106.55-58.53,129Z"/><path class="cls-2" d="M97.85,152.4C86.49,97.07,107.67,36.29,151,0a439,439,0,0,1,34.94,40.06c6.27,8.13,12.31,16.57,16.37,26,9.25,21.48,7.48,45.88,5.54,69.19Z"/><path class="cls-2" d="M407.91,491.52c-14.51,50.14,5.2,105.71-10.79,155.4-1.6,5-3.57,10-3.71,15.19s2,10.93,6.73,13.26A245.21,245.21,0,0,0,446.5,538.91Z"/><path class="cls-3" d="M155,374.52a524.7,524.7,0,0,1,8.38,282.83c-1.15,4.59-1.88,10.5,2.08,13.09,5.37,3.49,11.44-3.33,14-9.18a282.72,282.72,0,0,0,22.27-79.18c2.17-16.86,8.38-32.15,10.58-49.28-.9,9.33,31.86,26.7,34.68,39.54,1.11,5,.89,10.24.66,15.38l-3.3,75.41c-.27,6.23,1.26,26.94,13.23,22.94,5.9-2,5.5-20.53,6.58-25.71,6.25-29.71,14.2-59.17,21.28-88.69,6.48-27,14.09-55.93,35.29-73.89,37.82-32,103.1-12.77,102.24,42.93-.23,14.83-6,31,1.8,43.67,8.32,13.53,21.33,16.59,25.72,32.1,3.59,12.7,1.36,36.46-.18,49.93C449.06,678,449,693.34,460,697c8.42,2.82,23.73-88.87,25.14-97.36,2.74-16.4-11-22.93-13.6-36.41v0c-6.39-33.55,33.86-60.56,39.54-92.72,3.72-21,7.43-42.77,2.75-63.62-5.24-23.35-20.43-43.08-36-61.26-15.19-17.74-32.31-35.57-54.73-42.14-27.35-8-57.44,2.84-79.36,21.05-22.79,18.93-41.47,43.1-59.13,66.66-5.61,7.48-13,15.78-22.26,14.84-8.6-.87-14.14-9.23-18.43-16.73l-18.76-32.79c-4.13-7.23-8.3-16.25-4.08-23.43Z"/><path class="cls-4" d="M158.85,390.2c7.75,3.55,16.7,3.22,25.15,2,21.8-3.09,44.52-13.06,54.39-32.75,2.51-5,3.88-11.55.23-15.78-3.87-4.49-10.92-3.72-16.7-2.41C208.2,344.42,114.76,370,158.85,390.2Z"/><path class="cls-3" d="M51.27,322.91c-24.51-25.8-35.8-48.52-42.82-83.15C6,227.5,3.82,214.88,5.79,202.53c7.21-45.15,51.43-72.2,88.69-89.07C127,98.75,161.34,86.11,197,85.28c25.32-.59,51.75,5.38,71,21.84,20.63,17.65,30.35,44.6,38.76,70.42,8.74,26.84,17,55.6,9.79,82.89-5.34,20.12-18.66,37.17-33.26,52-27.22,27.63-71.47,65.28-112.19,68.15C128.12,383.62,79.47,352.58,51.27,322.91Z"/><path class="cls-5" d="M200,177.59a2.6,2.6,0,0,0-3.15-1.08,4.86,4.86,0,0,0-3.22,2.73,7.73,7.73,0,0,0,1.34,9c3.08,2.91,8,2.11,10.76-.86a9.81,9.81,0,0,0,1.36-11.65,4.74,4.74,0,0,0-4.15-2.37c-3.35.27-6.72,1.18-8.45,4.36a7.23,7.23,0,0,0,4.09,10.35,6.38,6.38,0,0,0,8.1-6.43,6.61,6.61,0,0,0-2-4.53c-2-1.92-4.48-1.83-6.87-.77-1.95.86-3,3.78-2.34,5.74a5.19,5.19,0,0,0,4.9,3.73l-.92-.14-2.28-1.33a4.21,4.21,0,0,1-1.08-3.87q-.67,1.86,1.79-2.34l2.76-.74,3.4,2a1.65,1.65,0,0,1,.37,1,4.37,4.37,0,0,1-.69,2.43c-.26.48-.49.12,0,.08-.84.07.19,0,.48-.13l-4.67-1.24c.36.39.34.34-.06-.14-.22-.59-.24-.64-.08-.15s.11.44,0-.18a5.46,5.46,0,0,1,0,.7c0-1,0-.11-.13.22.33-1.18-.6.87.07,0a5.57,5.57,0,0,1-.46.51c-.34.31-.33.31,0,0-.66.18.15,0,.38,0-.46,0-.46,0,0,.07-.4-.12-.38-.1.06.07-.33-.21-.32-.19,0,.07-.22-.25-.25-.27-.09-.07.06.53-.36-1-.07-.12a5,5,0,0,1-.26-1.14c.07.65,0-.29,0-.35,0-.34,0-.37,0-.09a4.64,4.64,0,0,1,.16-.53,3.85,3.85,0,0,1,.56-1.21,1.67,1.67,0,0,0,.29-1.56Z"/><path class="cls-5" d="M95.34,134.9c-.36-.34-.53-.76-1-1a3.42,3.42,0,0,0-1.64-.32,4.82,4.82,0,0,0-3.24,1.36,6.26,6.26,0,0,0-1.87,6.45c1.5,5.13,8.69,6.73,12.14,2.6,3.82-4.58,1.39-12.3-4.93-12.73a8.07,8.07,0,0,0-7.15,3.9,7.53,7.53,0,0,0,1,9.05c1.69,2,4.91,1.88,6.82.41s2.91-4.64,1.33-6.7c-.31-.45-.27-.27.13.55.07,1,.1,1.17.09.61-.17.95-.17,1.16,0,.62s.08-.36-.24.47c.27-.46.16-.35-.34.33.37-.37.24-.29-.4.23q.68-.39-.45.15a2.73,2.73,0,0,1-1.5,0c.48.15.35.09-.4-.18-.58-.5-.7-.57-.35-.24-.43-.6-.53-.69-.28-.28-.26-.68-.32-.78-.17-.32-.07-.74-.09-.86,0-.37s0,.36.08-.34a3.07,3.07,0,0,1-.14.52,1.24,1.24,0,0,1,.38-.73c.23-.27.23-.28,0,0a1.39,1.39,0,0,1,.79-.44c-.44.11-.38.13.17,0a3,3,0,0,1-.6,0c.52.08.56.08.12,0s-.39-.11,0,.05c-.33-.21-.35-.2,0,0-.26-.28-.28-.28,0,0s.09.31,0-.09a.31.31,0,0,1,0,.31.94.94,0,0,1,.18-.57,6.5,6.5,0,0,1,.83-1c.15-.17.54-.77.62-.81a1,1,0,0,0,.2-1.48Z"/><path class="cls-5" d="M104.25,188c-1.34,9,13.06,15.17,21.06,16,23.51,2.42,4.67-21.91-8-24.49-3.81-.78-8.17.26-10.58,3.32A11.19,11.19,0,0,0,104.25,188Z"/><path class="cls-5" d="M66.87,199.75c-4.43,3.3-4.13,11.24-2.51,15.86a19.1,19.1,0,0,0,15,12.95c8.77,1.5,17.36-2.28,24.27-7.41,7.51-5.58,15.09-13.05,19.18-21.58,2.89-6-5.3-10.94-9-5.26-.67,1-1.34,2.07-2,3.1-2.38,3.67,2.39,8.48,6.06,6.06l3.09-2q-3.16-4.08-6.32-8.18c-8.09,10-16.36,23-29.8,26.22a13.46,13.46,0,0,1-14-5,17.24,17.24,0,0,1-3.11-6.69c-.6-2.63,0-5.08-.19-7.7,0-.27-.34-.55-.6-.35Z"/><path class="cls-5" d="M146.45,231c-1.65,2.91-2.64,5.61-5,8.14a18.57,18.57,0,0,1-7.74,5.2,17,17,0,0,1-17.13-4.38c-4.39-4.49-5.16-11.41-4.19-17.36a50.87,50.87,0,0,1,2.68-9.6c.62-1.69,1.32-3.36,2.08-5,.33-.73.7-1.43,1-2.15s1.1-1,.5-1.05c5.27.08,6.42-6.65,2.53-9.34-10.87-7.52-17,13.69-18.51,20.64-2.26,10.17-1.64,21.52,6.18,29.25,6.65,6.56,17,8.86,25.65,5.11,6.83-2.95,14.38-11.27,12.67-19.36a.44.44,0,0,0-.79-.1Z"/><path class="cls-5" d="M192.55,230.46l-.18-.16c.07.53.13,1.06.2,1.59l.1-.19-1.59.91c1.76-.11,4.2,1.32,5.82,1.91,2.45.91,4.91,1.78,7.36,2.7q7.17,2.7,14.16,5.86c9.27,4.19,18.22,9,27.25,13.68,5.37,2.79,10-5.06,4.76-8.15A181.24,181.24,0,0,0,219,234.53q-8-2.82-16.23-5.11c-3.65-1-10.07-4-13.24-.9-1,1-.95,3.15.48,3.76,1,.45,2.21.47,2.74-.67a1,1,0,0,0-.15-1.15Z"/><path class="cls-5" d="M186.93,247.15c1.47,4.34,7.12,7.74,10.42,10.79,4.2,3.89,8.25,7.93,12.25,12,8,8.19,15.48,16.94,22.74,25.79,3.47,4.22,9.26-1.77,6-6a210.43,210.43,0,0,0-24.05-25.45c-4.25-3.86-8.72-7.49-13.26-11-3.49-2.72-8.2-7.56-12.8-7.83a1.31,1.31,0,0,0-1.26,1.65Z"/><path class="cls-5" d="M58.61,169.68c-4.6-6.32-10.14-11.94-14.8-18.24q-3.31-4.45-6.37-9.11c-2.14-3.26-3.87-7.45-6.73-10.1S23,132.15,24.15,136s4.19,7.13,6.51,10.26,4.88,6.43,7.46,9.53c5.11,6.15,10.5,12.6,17,17.37,2,1.51,5-1.48,3.53-3.52Z"/><path class="cls-5" d="M47.75,187.43c-2.4-2.5-6-3.8-9.15-5.18-3.73-1.64-7.48-3.2-11.28-4.65-7.61-2.89-15.28-5.55-23.12-7.72-3.84-1-6.05,4.7-2.17,5.85,7.62,2.28,15.27,4.45,22.86,6.83L36,186.06c3.49,1.1,7.32,2.86,11,2.72.64,0,1.25-.77.7-1.35Z"/></g></g></svg>