<svg xmlns="http://www.w3.org/2000/svg" viewBox="0 0 594.99 537.6"><defs><style>.cls-1{fill:#774625;}.cls-2{fill:#925f36;}.cls-3{fill:#422918;}.cls-4{fill:#ffd556;}.cls-5{fill:#1d1d1b;}.cls-6{fill:#f0886d;}.cls-7{fill:#ae7750;}</style></defs><title>brownCat</title><g id="Layer_2" data-name="Layer 2"><g id="Layer_1-2" data-name="Layer 1"><path class="cls-1" d="M465.47,464.14c23.24-.59,46.84-1.14,69.33,4.71,5.06,1.31,10.35,3.16,13.54,7.29s3.07,11.17-1.5,13.71c-2,1.12-4.43,1.17-6.73,1.18a665.8,665.8,0,0,1-112.26-9c-8.69-1.44-18.86-4.29-21.69-12.64Z"/><path class="cls-1" d="M309.41,288.91l53.09-19.27c4.24-1.54,8.69-3.22,11.58-6.69,13.85-16.62-21.54-44.36-32.51-53-20.37-16.09-45.68-26.41-71.64-26.88-5-.1-5.22,54-4.89,59.26a177.83,177.83,0,0,0,12.33,56.42c5.82,14.35,15.5,3.65,23.76-2.05a216.93,216.93,0,0,1,33.11-18.77Z"/><path class="cls-1" d="M71.59,429.53c2.93,8.66-.17,18.37,1.82,27.3C76.86,472.29,93.66,480,102,493.34c5.77,9.18,9.44,22.59,20,23.78,7.19.81,13.86-5.9,14.71-13.32s-3.13-14.8-8.8-19.45C120,477.87,108.58,475.23,104,466c-2.55-5.08-2.39-11.1-2.18-16.83l4-105.67Z"/><path class="cls-2" d="M52.25,207c-20.84-30.62-25.13-71.8-13.79-107.36s37.31-65.27,69.05-83.33C124.76,6.5,144.08-.15,163.78,0s39.76,7.63,53.14,22.55,19,37.66,11.8,56.6c-1.48,3.88-3.55,7.69-6.82,10.15-8.38,6.29-19.93,1.4-29.53-2.61A143.81,143.81,0,0,0,131,75.7c-11.26.48-22.7,2.37-32.68,7.79-16.21,8.8-26.79,26-32.69,43.89C55.46,158.23,58.19,195,78.34,220Z"/><path class="cls-2" d="M248.9,297.67c6.68-2.2,57.86,67.72,63.65,78.43,17.94,33.2,15.59,74.27,45.85,101.49,19.21,17.27,46.07,21.33,71.33,24.67,27.65,3.65,57.32,12.79,84.75,12.75,9.5,0,29.61-7.17,28,7.87-2.31,21.83-42,13.08-54.53,12.51-23.54-1.06-47-3-70.51-5.1-48-4.27-96.07-9.36-144.33-9.45-20.9,0-42.15.82-62.34-4.78-26.51-7.37-49.38-25.62-66.41-47.87s-28.67-48.4-38.11-75.05c-1.91-5.37-5.23-11.85-10.75-11.38a82.45,82.45,0,0,1-15.18,61.36c-9.86,13.12-24.74,28-18.13,43.17,3.75,8.6,13.09,12.6,21,17.36S98.88,517,96.36,526c-3.2,11.51-19.58,11.85-29.51,5.67-14.7-9.16-23.36-26.22-27.11-43.53s-3.29-35.24-3.91-53A429.66,429.66,0,0,0,20.4,335.11c-11.26-40.47-37.55-104.23-3.76-141.4,38.69-42.56,104.4-23.19,137.57,13.9,20,22.32,34.5,49,54.19,71.6C218.76,291.08,233.94,302.6,248.9,297.67Z"/><path class="cls-3" d="M252.07,436.46c19.27,31.61,50.43,48,79.71,41.89,5-1,10-2.78,14.08-7,6.48-6.69,9.26-18.48,10-29.74,1.87-27.18-5.76-54.08-16.19-77.11-18.63-41.11-65.82-115.78-99.73-61C217.66,339.51,232.9,405,252.07,436.46Z"/><path class="cls-4" d="M342,451.31a27.26,27.26,0,0,0-17.84,18.41,29.93,29.93,0,0,0-.19,14.57,24.54,24.54,0,0,0,5,10.55c5.33,6.2,14,8.34,22.09,9.21,6,.65,12.33.75,18-1.52,9.29-3.75,15.25-14.07,14.52-24.07C382.25,460.27,359.05,446,342,451.31Z"/><path class="cls-1" d="M415.7,253.89c.41-3.37,2.93-6,5.39-8.38A206.9,206.9,0,0,1,511.75,195c11.59,23.22,14.16,50.43,9.32,75.94s-16.77,49.36-32.48,70Z"/><path class="cls-2" d="M312,466.93c-11.14-4.45-22.57-9.09-31.24-17.38-9-8.58-14.14-20.29-18.87-31.76-8.11-19.69-15.63-40.14-16.15-61.43-1.22-49.78,36.76-93.45,81.18-116,32.86-16.65,71.54-24.5,107-14.45C480,239,513,279.31,537.05,320.69c17.61,30.25,32.37,67.3,18.32,99.36-7,15.87-20.18,28.16-34.36,38.11a199.27,199.27,0,0,1-83.56,33.43c-20.78,3.21-41.62-3.26-61.76-7.52C353.53,479.37,333.27,475.43,312,466.93Z"/><path class="cls-5" d="M491.88,295.64c-4.27,1-4.92,7.17-2.92,10.43a5.24,5.24,0,0,0,7.8,1.28,10.75,10.75,0,0,0,4-5.57c1.44-5.39-4-10.69-9.26-8.28-4.91,2.25-6,8.87-4.47,13.56a5.34,5.34,0,0,0,5,3.81c3.48.16,7.13-2.25,7.88-5.75a5.21,5.21,0,0,0-3-6.08,5.15,5.15,0,0,0-6.44,2.11c-.39.67,0,.06.32-.18a2.38,2.38,0,0,1,1.23-.48l5,3.81a8,8,0,0,1-.45-1.59c.07.57.05-.06.06-.28.08-1.48-.24.63.12-.82.21-.83.27-.2-.1,0-.59.28-4.29.4-4.75-.26l-.3-1.21a.75.75,0,0,1,.1-.44c-.1-.1-.33.55-.11.24-.08.11-1,.95-.52.7l2.17-.58-.38,0,2.13.57c.45.26.1.33,0-.22,0-.28-.18-.64-.25-.94-.18-.8-.24-1.61-.45-2.41a2,2,0,0,0-2.42-1.38Z"/><path class="cls-5" d="M396.06,287.94c-2.13.93-2.72,3.84-2.89,5.93-.22,2.69.5,5.43,3.12,6.65,4.74,2.21,9.5-2.54,10.89-6.68,1.61-4.79-.59-12.51-6.68-12.52-7.21,0-8.37,9-7.38,14.35.83,4.54,6.88,5.45,9.84,2.6a6.5,6.5,0,0,0,.62-8.61c-1.79-2.41-5.62-3.54-8.2-1.6a5.75,5.75,0,0,0-2.71,4.73,5.41,5.41,0,0,0,2.71,4.74l.25.11c-.68-.67-1.36-1.35-2-2,.29.48.23.31-.2-.5V292l-.06.32c.5-.87,1-1.74,1.52-2.61l-.22.26,9.83,2.59a7.57,7.57,0,0,1-.29-1.23c.07.75.07-.45.09-.68s.22-.13.09-.37c.13-.37.12-.41,0-.14s-.28.48-.43.72l-2.45,1.43.5-.09H399q-2.32-2.28-1.38-.82c-.2-.52-.21-.48,0,.11.35-1.32-.24,1.46,0,.24-.19.54-.19.63,0,.25a7,7,0,0,1-.48.84c.2-.31.13-.25-.22.18a3.09,3.09,0,0,1,1.6-.25l1.76,1c-1-.9-.45-3.79-1.37-5.07a2.17,2.17,0,0,0-2.84-.74Z"/><path class="cls-6" d="M417.33,411.07c.31,3.49.71,7.06,2.24,10.21s4.42,5.86,7.91,6.23c3.27.34,6.48-1.43,8.65-3.9a27.87,27.87,0,0,0,4.65-8.62,185.72,185.72,0,0,0,10.15-37.79c-3.95-.59-7-4-8.35-7.77s-1.29-7.86-1.23-11.86c-.19,11.89-13.94,12.68-19.68,19C414.85,384,416.54,402,417.33,411.07Z"/><path class="cls-5" d="M446.55,338c1.63-3.82-1.33-7.7-5.34-8-5.52-.45-11.4,7.32-8.8,12.34,5.39,10.44,22.14,3.05,19.11-8.07a12.69,12.69,0,0,0-12.42-9c-5.84.14-10.65,4.8-12.19,10.22-3.58,12.57,11.73,25.49,22.36,15.51,5.4-5.07,5.49-14.24-1.07-18.4-6-3.82-14-1.79-16.28,5.21a6.72,6.72,0,0,0,3.06,7.51c2.72,1.6,5.74.85,8.06-1-2.68,2.18-5.54-2.39-2.82-3.87.78-.43.76,1,.12-.33-.2-.42-.39-.59-.23-1.06.08-.24.28-1.16.51-1,0,0-.61.4-.91.22-1-.58.52-2.58.87-2.88-1.1,1-.25-.18.12.1.67.5.88,0,1.61,1.07.2,1.47.39,2.95.58,4.42a14,14,0,0,0,.63-2.68.8.8,0,0,1,.36-.41c-.43.24-.82.12-1.19-.37.48,1.55,3.1,2.29,3.86.51Z"/><path class="cls-5" d="M408.88,368.17c2.39,4.16,4.73,6.83,9.59,8.14a19.16,19.16,0,0,0,13.26-1.53c9.24-4.64,14.4-16.67,12.34-26.67-.94-4.51-7.54-3.22-7.74,1.05-.33,7-.73,14-7,18.58-4.89,3.6-14.2,3.66-18.58-1a1.22,1.22,0,0,0-1.91,1.47Z"/><path class="cls-5" d="M460,377.47c-6.3-.16-10.42-2.39-12.21-8.82s-.56-12.42.5-18.8c1-6.06-7.28-8.55-9.31-2.57-3.13,9.25-2.28,21.63,3.58,29.67,3.74,5.13,14.72,10.53,18.5,2.35a1.24,1.24,0,0,0-1.06-1.83Z"/><path class="cls-7" d="M524,361.66c9,2.49,19,2,28.21,2.86q6.77.6,13.5,1.43c5.38.65,10.54,2,15.91.92,9.56-2,7.76-14.79,0-17.63-4.88-1.79-10.77-.87-15.91-.7-4.5.14-9,.36-13.5.63-9.2.57-19.5.47-28.21,3.72-4,1.5-4.6,7.5,0,8.77Z"/><path class="cls-7" d="M524.6,384.1c2.93,4.22,8.12,5.48,12.71,7.39,5,2.07,10,4.23,14.9,6.47,9.89,4.5,19.6,9.52,29.06,14.85,10.26,5.77,19.57-10.43,9.18-15.71a251.68,251.68,0,0,0-31.26-13.36C554,382,548.86,380.33,543.58,379c-4.76-1.21-11.42-3.82-16.15-1.83-2.56,1.08-4.77,4.15-2.83,7Z"/><path class="cls-7" d="M350,330.69c-1.19-5.08-8.07-6.79-12.43-8.13a100.34,100.34,0,0,0-18.48-3.78A114.27,114.27,0,0,0,281.19,321c-9.45,2.14-5.45,16.88,4,14.55a117,117,0,0,1,33.86-3.4,141.22,141.22,0,0,1,16.29,1.72c4.6.77,9.94,2.69,13.9-.46a2.79,2.79,0,0,0,.72-2.74Z"/><path class="cls-7" d="M352.68,360c-1.79-11.23-22.92-3.17-29.09-1.4a273.13,273.13,0,0,0-34.72,12.82c-3.64,1.6-4.41,6.86-2.62,10,2.13,3.76,6.41,4.2,10,2.63C307,379.31,318,375,329,371.07c5.15-1.85,10.45-4,15.83-5.06,3.46-.68,8.63-1.15,7.85-6Z"/></g></g></svg>