<svg xmlns="http://www.w3.org/2000/svg" viewBox="0 0 717.47 542.67"><defs><style>.cls-1{fill:#e74041;}.cls-2{fill:#ef8184;}.cls-3{fill:#7a6a58;}.cls-4{fill:#685646;}.cls-5{fill:#bba38e;}.cls-6{fill:#f8b133;}.cls-7{fill:#1d1d1b;}.cls-8{fill:#00a099;}.cls-9{fill:#2d2e82;}</style></defs><title>grayBrownCat</title><g id="Layer_2" data-name="Layer 2"><g id="Layer_1-2" data-name="Layer 1"><path class="cls-1" d="M111.08,499.31c-5.48.05-10.3.06-15.7-1.34-4.52-1.17-8.91-2.82-13.44-4-9.6-2.45-18.84-1.39-28.08,1.95-4.32,1.56-8.7,3.39-13.34,3.64s-9.05-1.1-13.35-2.55c-8.29-2.81-15.9-6.46-24.87-6-3.15.18-3,4.39,0,4.78,9.13,1.2,17.28,6.24,25.93,9,9,2.93,17.21,1.7,26-1.52a51.4,51.4,0,0,1,31.16-2c8.21,1.9,18.57,5.08,26.47.58a1.46,1.46,0,0,0-.73-2.7Z"/><path class="cls-2" d="M204.74,459.18c0,.56-.09,1.13-.16,1.69-1.37,11.37-6.66,21.7-13.81,30.77a108.81,108.81,0,0,1-14,14.49,73.86,73.86,0,0,1-8.52,6.55,37.49,37.49,0,0,1-18.58,6.17h0A53.6,53.6,0,0,1,144,519a72,72,0,0,1-11-1.27c-1.8-.34-3.6-.74-5.38-1.19-.77-.19-1.54-.4-2.3-.62-15-4.21-29-12.4-38.62-24.61-12-15.22-13.46-34.85-7.64-52.49.46-1.43,1-2.85,1.55-4.25a70.18,70.18,0,0,1,12.48-20.22c.81-.93,1.65-1.82,2.52-2.7a59.41,59.41,0,0,1,27.57-16.16c.63-.16,1.25-.31,1.89-.43a51.17,51.17,0,0,1,7.32-1c22.3-1.49,46.61,10.62,60.63,28.87a60.54,60.54,0,0,1,6.73,10.87,51.84,51.84,0,0,1,3.89,11A46.58,46.58,0,0,1,204.74,459.18Z"/><path class="cls-1" d="M136.29,481.41a5.66,5.66,0,0,1-1.06-.44c-5.76-3.07-10.95-7.49-16.24-11.32q-7.23-5.22-14.46-10.45c-5-3.6-9.89-7.3-14.7-11.1-3.45-2.72-8-5.65-10.72-9.32.46-1.43,1-2.85,1.55-4.25,4.88,1,9.6,4.29,13.82,6.68,5.42,3.08,10.77,6.36,16,9.69,10.42,6.57,22.06,12.52,31.54,20.41l.38.31C147.52,475.89,141.72,483,136.29,481.41Z"/><path class="cls-1" d="M146.69,464.44a4.72,4.72,0,0,1-1.11-.75c-9.25-8.15-17.72-17.24-26.83-25.55-4.56-4.16-9.22-8.2-13.78-12.35-4-3.67-8.55-7.1-11.83-11.48.81-.93,1.65-1.82,2.52-2.7,5.15,2.27,9.65,6.08,14.15,9.42,4.71,3.5,9.24,7.24,13.76,11,9.69,8,19.85,16.05,28.44,25.25l.08.09C155.64,461.29,150.85,466.55,146.69,464.44Z"/><path class="cls-1" d="M164.64,448l-2-2.49c-6.71-8.27-13.14-16.78-19.55-25.26-3.7-4.89-7.27-9.85-10.8-14.85-2.37-3.35-5-6.79-7.14-10.41a51.17,51.17,0,0,1,7.32-1c2.18,2.52,4.23,5.17,6.31,7.63,3.53,4.19,7.08,8.37,10.56,12.6,6.78,8.2,13.74,16.26,20.54,24.44.63.76,1.26,1.51,1.88,2.27C175.82,445.88,168.75,453,164.64,448Z"/><path class="cls-1" d="M199.8,433.74c-7.29,4.44-14.73,8.4-21.49,13.8A159.4,159.4,0,0,0,158,466.72a154.12,154.12,0,0,0-16.89,23.47,137.29,137.29,0,0,0-6.6,12.68c-1.9,4.16-3.24,9.12-5.88,12.85a2.11,2.11,0,0,1-1,.78,2,2,0,0,1-2.3-.62,2.17,2.17,0,0,1-.4-1.15c-.26-5,1.93-10.59,3.55-15.2S132,490.44,134,486c.73-1.56,1.48-3.11,2.27-4.63q2.66-5.19,5.77-10.1,2.2-3.49,4.63-6.87c1.12-1.57,2.27-3.11,3.46-4.64.63-.82,1.28-1.63,1.94-2.45,3.23-4,6.75-8,10.52-11.81,2.32-2.37,4.74-4.67,7.24-6.87a102.77,102.77,0,0,1,23.22-15.8A60.54,60.54,0,0,1,199.8,433.74Z"/><path class="cls-1" d="M204.74,459.18c-3.42,3.09-7,6.06-10.19,9.22-5.66,5.57-11.24,11.24-16.61,17.09s-10.46,11.91-15.55,18c-4,4.83-7.88,11-12.69,15.37h0A53.6,53.6,0,0,1,144,519a2.09,2.09,0,0,1,0-.35c1.61-7.41,7.86-14.89,12.12-21,4.59-6.6,9.64-12.92,14.76-19.1,5.45-6.59,11.12-13,17.13-19.07,4.88-4.94,9.89-10.57,15.62-14.7A46.58,46.58,0,0,1,204.74,459.18Z"/><path class="cls-3" d="M279.47,432C272,448.4,251.1,455.09,233.34,451.9S200.22,438,185.52,427.47c-18.63-13.27-46.68-34.61-70.69-19.06-5.57,3.61-9.2,9.47-13.71,14.33s-11,9-17.45,7.44c-10.81-2.62-12-18.18-7-28.13,15.71-31.18,59.37-37.92,90.19-34.63,18.34,2,31.68,1.86,47.86,10.89,21.86,12.21,43.73,21.26,69,23.39Z"/><path class="cls-4" d="M228.44,110.61c-2-2.87-1.85-6.64-1.56-10.11A212.3,212.3,0,0,1,262.17,0C286.89,10,307.38,29.11,321,52s20.71,49.33,22.71,75.9Z"/><path class="cls-5" d="M225.62,318a12.79,12.79,0,0,1-4.5,10c21.65,23.79,27.63,57.41,34.49,88.84q6.93,31.75,16.23,62.94c5.92,19.84,15.39,42.28,35.4,47.58,4.37,1.16,9.3,1.28,13.11-1.13s5.67-6.57,8.67-9.74c7.2-7.63,19-8.15,29.44-8.15l179.69-.07a269.06,269.06,0,0,1,28.4,1,258.53,258.53,0,0,1,27.58,4.91c14.9,3.24,30,6.61,45.2,6.32s31-4.65,42.13-15.06c18.68-17.41,20-46.42,16.71-71.75-6-46.86-23.94-93.07-56-127.74s-79.33-56.57-126.42-52.64c-44.45,3.72-83.8,28.88-121.48,52.77-13.71,8.69-29.94,17.66-45.34,12.49-12.7-4.27-21-18.84-18.16-31.94Z"/><path class="cls-6" d="M272.54,371c8.19-.63,16.48-1.37,24.21-4.15,8.42-3,15.8-8.33,23.05-13.58,16.72-12.1,34.33-25.33,41.48-44.69.69-1.86,1.24-4,.21-5.73a6.59,6.59,0,0,0-3.5-2.39c-22.2-8.49-46.83.75-68.76,9.9-17.33,7.23-48.18,16.21-58,33.78C217,369.63,256.66,372.23,272.54,371Z"/><path class="cls-5" d="M293.81,344.86c-11.58,4.17-23.53,8.38-35.83,7.91-12.73-.49-24.68-5.95-36.12-11.55-19.63-9.61-39.33-20.2-54.22-36.2-34.83-37.42-35.38-96.82-16.58-144.35,13.92-35.16,38.29-67.52,72.35-83.93,44.28-21.33,97.06-12.82,143.74,2.57,34.12,11.26,70.68,29.68,81.71,63.87,5.47,16.92,3.67,35.37-.45,52.67A204.5,204.5,0,0,1,407,278.41c-13.79,16.62-34.2,25.84-52.57,36.27C334.18,326.16,315.93,336.92,293.81,344.86Z"/><path class="cls-7" d="M428.74,122.86c.86,5.09-.64,11,4.3,14.48,5.5,3.87,12.59-.7,14.28-6.46,2-6.8-2.81-13.65-6.8-18.7s-11-9-17.13-4.89c-5.93,4-7,11.55-5,17.95,1.89,6,5.16,12.71,10.48,16.45A10.82,10.82,0,0,0,444.74,138c3.42-6.49.85-13.35-3.32-18.77-2.26-2.94-4.69-6.46-8.59-7.17s-7.41,1.58-9.22,4.86c-4.25,7.7,2.09,14.22,7.82,18.62,2.35,1.8,5.29-.29,6.13-2.49a15.55,15.55,0,0,0,.18-10.3c-1.05-3.12-3.58-7.59-7-8.54-4-1.1-7.15,3.08-7.35,6.6a7,7,0,0,0,5.13,7.38c5.17,1.24,7.25-6.34,2.19-7.94a2.06,2.06,0,0,1,1,.92c.16.25,0-.64,0,0,0,.42-.11.24,0-.09a2.06,2.06,0,0,1-1,1.14l-3.22-.42c2.77,2.08,3.17,6,2,9l6.13-2.49c-1.86-1.42-5.89-4.34-5-6.94.14-.4,1.16-1.26.43-1.24,1.09,0,3.15,3.29,3.77,4.1,2,2.61,4.26,6.18,2.74,9.54-1,2.22-3,2-4.71.66-2.8-2.29-4.52-6-5.86-9.27s-2.65-7.51-.12-10.45c2.19-2.55,4.92-.45,6.73,1.45,2.66,2.79,5.88,6.6,6.64,10.47a4.32,4.32,0,0,1-1.23,4.36c-.81.74-1.83,1.26-2.71.39s-.95-2.65-1.06-3.82a54,54,0,0,0-.77-6.35c-.82-3.83-6.43-2.16-5.8,1.6Z"/><path class="cls-7" d="M363.84,102.37c.69-3.39-4.35-3.65-6.41-2.47-4.26,2.46-2.88,8.55-1.57,12.3,1.42,4,4.07,8.56,8.82,8.92s8.47-3.88,9-8.44a17.16,17.16,0,0,0-1.4-8c-.93-2.41-1.84-5-4.11-6.43-4.29-2.76-10,.51-11.34,5-.88,2.88-.33,5.89.52,8.7.77,2.56,1.68,5.16,3.76,7,4,3.42,10.95,1.52,11.19-4.2.22-5.45-4.45-12.46-10.55-10.86a5.8,5.8,0,0,0-4.23,7.18c.81,2.92,4,5.11,7,4,4.56-1.72,2.79-8.9-2.05-7.44l.18,0,2,.53a1.63,1.63,0,0,1-.35,1.73q.33,1.76-.9,1.62c0,.09.25.19.25.36a9.68,9.68,0,0,0,.56,1.32c.07.2.13.39.19.58.07.83.23.9.48.22a6.93,6.93,0,0,1,.82-.88c.27-.54.26.48.18-.18,0-.15-.64-1.37-.7-1.53-.25-.68-.47-1.39-.67-2.09-.4-1.38-1.29-3.86.4-4.64,0,0-.31,0-.42-.09a5,5,0,0,1,.83,1.57,22.16,22.16,0,0,1,1.46,3.66c.43,1.53.73,4.22-1.06,5.12-1.64.82-3.06-1.39-3.76-2.57a17.47,17.47,0,0,1-2.47-6.75c-.27-2.45,1.32-4.14,3.67-2.84a.53.53,0,0,0,.77-.31Z"/><path class="cls-3" d="M584.68,491.27c-20-4.53-40.24-12.64-53.39-28.4-7.15-8.55-11.85-19-19.15-27.39-12.25-14.15-30.77-21.47-49.21-24.74s-38.66-2.72-54.66,7.14c-17.33,10.67-27.35,32.1-24.42,52.24,2.76,19,16,35.35,32.21,45.68s35.19,15.39,54.08,19c30.59,5.79,61.8,8.07,92.94,7.9,30.47-.17,61.81-2.92,89.1-16.49,15.64-7.77,31.61-15.47,45.44-26.29,6.42-5,14.3-11.4,17.58-19,3.8-8.79,2.32-20.27-.68-29-2.57-7.49-7.61-19.25-14-24.27-5.24-4.09-3,2.29-2.88,6.48.41,10.5,1.91,22.77-5.35,31.36a93.31,93.31,0,0,1-12.11,12.07,76.51,76.51,0,0,1-31.85,15.27C627.4,497.45,605.43,496,584.68,491.27Z"/><path class="cls-7" d="M431.73,140c.13.41.35.46.66.71.52.41,1.15.5,1.66,1.05a7.08,7.08,0,0,1,.91,1.39,35.78,35.78,0,0,1,2.53,6.67c1.2,4,2,9-1.14,12.32a9,9,0,0,1-9.56,2.16A11.74,11.74,0,0,1,420,156c-1-4.24-7.5-2.44-6.54,1.8a17.78,17.78,0,0,0,10.92,12.84,15.17,15.17,0,0,0,15.73-3.45c4.51-4.71,4.42-11.42,2.23-17.19-1.49-3.91-4.64-11.89-10-11a.92.92,0,0,0-.67.89.33.33,0,0,0,0,.17Z"/><path class="cls-8" d="M262.17,361.63c-18.85-7.95-43-11.58-56.93,7.42-21,28.63,6.66,59.11,37.94,52.65,13.42-2.78,25.38-12.43,30.31-25.22C278.37,383.87,274.62,366.89,262.17,361.63Z"/><path class="cls-9" d="M228,378c-1.61,4.17-2,9.12-1.85,13.55a37.81,37.81,0,0,0,2.53,13.57c.88,2.1,4.29,1.32,3.52-1a57.47,57.47,0,0,1-3.21-13c-.4-4.41.18-8.58.64-12.95.11-1-1.32-1-1.63-.22Z"/><path class="cls-9" d="M216.17,394.46c9.84-.45,19.68-1.55,29.49-2.44,2.5-.22,2.48-4.18,0-3.89-9.95,1.12-20,2.05-29.86,3.62-1.54.25-1.18,2.78.37,2.71Z"/><path class="cls-3" d="M185.23,156.53,237.28,131c4.16-2,8.51-4.24,11.07-8.09,12.31-18.5-26.87-42.9-39-50.54C186.76,58.2,159.8,50.45,133.26,52.83c-5.13.46.62,55.67,1.54,61,3.38,19.83,9.35,38.62,18.8,56.22,7.52,14,16.23,2,24-4.71a221.82,221.82,0,0,1,31.72-22.81Z"/><path class="cls-3" d="M303.91,463.74a87.42,87.42,0,0,0-9.64,13c-6.4,10.39-12.1,14.42-25,16.78a336,336,0,0,1-77.17,5.07c-7.91-.39-16.08-1-23.55,1.61s-14.08,9.63-13.46,17.52c.5,6.26,5.41,11.47,11.1,14.12s12.1,3.18,18.36,3.61a923.07,923.07,0,0,0,179.9-5.15c5.71-.73,5.71-7.08,6.2-12.82s-1.1-11.45-3-16.88a133.12,133.12,0,0,0-21.76-38.83C331.32,443.8,315.8,450.71,303.91,463.74Z"/><path class="cls-7" d="M358.59,160.56c-3-1.85-6-.7-9.24.14-3.93,1-7.82,2.13-11.69,3.37-7.82,2.49-16.11,4.81-23.27,8.92-5.71,3.27-1.93,13.14,4.59,10.88,7.82-2.72,15.1-7,22.61-10.48q5.49-2.53,11-5c3.18-1.44,5.61-2.19,6.94-5.52a2,2,0,0,0-.93-2.28Z"/><path class="cls-7" d="M370.61,174.42c-3.33.87-5.74,3.43-8.17,5.75-3,2.9-6,5.85-9.06,8.72-6.12,5.76-12.61,11.13-19.15,16.39-5.66,4.56,2.41,12.65,8,8a168.34,168.34,0,0,0,18.65-18.16c4.32-4.86,11.76-12.07,12-19a1.85,1.85,0,0,0-2.32-1.76Z"/></g></g></svg>