<svg xmlns="http://www.w3.org/2000/svg" viewBox="0 0 783.7 546.33"><defs><style>.cls-1{fill:#6d9282;}.cls-2{fill:#a3c2b2;}.cls-3{fill:#ec6a8b;}.cls-4{fill:#020202;}.cls-5{fill:#f29b9e;}</style></defs><title>greenCat</title><g id="Layer_2" data-name="Layer 2"><g id="Layer_1-2" data-name="Layer 1"><path class="cls-1" d="M613.77,378c2.42,7,8.93,12,16,14.36s14.63,2.35,22,2c20.72-.89,43.45-5.45,56-21.94,4.61-6,7.59-13.39,13.29-18.42s15.85-6.39,20.11-.1c1.68,2.48,2.07,5.62,2.15,8.62.6,21.54-12.11,41.94-29.42,54.78s-38.68,19-60,22.37c-16.49,2.59-33.78,3.55-49.5-2.05Z"/><path class="cls-1" d="M214.55,367a241.29,241.29,0,0,0-112.5,60.25c-9.7,9.23-19.14,23.71-11.82,34.93,4.27,6.55,13,8.92,20.79,7.87s14.8-4.87,21.78-8.41a391,391,0,0,1,147-41.17Z"/><path class="cls-1" d="M556.44,369.21c5.24,7,17.23,4.52,22.44-2.5s5.55-16.4,5.64-25.14c.36-36-.11-72.47,7.87-107.62s25.52-69.54,55.05-90.2,72.36-24.35,101.06-2.54c10.9,8.28,19.2,19.57,25.84,31.54,9.11,16.43,14.62,38.8,1.88,52.6-10.71,11.59-28.74,11.17-44.52,11-26.38-.28-55.4,3.86-73,23.52-18.3,20.47-18.38,50.78-25.89,77.2a132.94,132.94,0,0,1-26.55,49.63Z"/><path class="cls-2" d="M764.82,490.7c-29.51,31.26-70.56,24.21-108.58,24.56-19.73.18-38.78,6.63-57.51,12.8s-38,12.2-57.71,11.52c-15.15-.51-30.67-5.6-41.89-16.06-.2-.19-.41-.39-.61-.6-8.12-8-10.67-19.83-18.11-27.81l-.57-.59c-10.44-10.58-23.34-8.55-37.31-10-17.65-1.83-34.42-7.71-52-9.8-67.56-8-133.21,14.29-184.75,57.64-8,6.72-16.77,14.2-27.21,14-14.06-.31-24.21-15.82-22.84-29.82s11.21-25.8,22.4-34.32c13.76-10.47,32.93-19.7,37.32-37.95,3.3-13.78-3.77-27.68-10.39-40.21-10.66-20.22-12.86-44.72-9.05-67.36l61.33-43.49c64.53,45.25,148.66,50.19,227.37,46.08,31.46-1.64,64-4.31,93.58,6.59,46.92,17.3,41.2,57.7,66.47,91.42,19.94,26.59,64.49,47.2,93.22,21.46,4.24-3.8,7.72-8.44,12.28-11.84s10.79-5.45,16-3.11c3.18,1.44,5.51,4.33,7.1,7.44C779.87,464,774.67,480.26,764.82,490.7Z"/><path class="cls-3" d="M158.9,346.33c1-9,7-19.14,20-29.69,26.7-21.55,60-29.87,88.84-43.6,15.79-7.52,32.37-14.93,48.69-13.1,2.92.33,6,1.09,7.82,3.72s1.9,6.64,1.52,10.27c-2.28,22.13-16.47,40.65-30.7,56.05-21.32,23.07-45.68,44.09-73.09,50.84C192.41,388.12,156.11,371.57,158.9,346.33Z"/><path class="cls-1" d="M307.48,110.27a129.44,129.44,0,0,1,93.26-32c2.88.18,6.05.61,8,2.76,2.7,3,1.56,7.77.26,11.63-13.57,40.43-28.76,83.21-62.32,109.52Z"/><path class="cls-1" d="M185.86,91.21Q183.48,50,181.07,8.81c-.21-3.67-1.33-8.37-5-8.78-1.66-.19-3.24.68-4.67,1.55-24.35,14.92-41.32,39.79-51.85,66.34s-15.26,55-19.9,83.15Z"/><path class="cls-2" d="M118.6,327.52C85.76,305.34,61.12,273,40.65,239c-7.85-13-15.33-26.78-17-41.87-5.69-50,47.56-101.09,87.13-121.66,34.75-18.06,74.58-25.22,113.72-23.94,25.6.83,51.31,5.25,74.83,15.38,46.86,20.18,82.55,63,97.49,111.77,7.35,24,9.94,50.08,2.94,74.19-15.07,51.86-73.89,85.26-124.17,94.73C223,357.52,164.33,358.41,118.6,327.52Z"/><path class="cls-4" d="M157.33,139.18a11.82,11.82,0,0,0,1.19,4.25,20.26,20.26,0,0,0,2.4,3.35,24.14,24.14,0,0,0,7.17,6.33A22.44,22.44,0,0,0,187,154c4.64-1.93,2.35-9.06-2.52-7.46a21.27,21.27,0,0,1-13.6-.43,22.68,22.68,0,0,1-6-2.82,17.18,17.18,0,0,1-2.67-2.72c-.69-.8-1.57-1.55-2.2-2.33-.83-1-3-.71-2.73.92Z"/><path class="cls-5" d="M142.24,181.05a51.83,51.83,0,0,0,2.28,36.22c1.53,3.39,3.67,6.82,7.1,8.24,5.67,2.35,12-1.81,15.8-6.6a41.35,41.35,0,0,0,9-24.15c-9.28-4.86-14.2-16.74-11.09-26.73-2.26,6-4.68,12.27-9.49,16.52S143,190.26,138.26,186C144.89,183.23,135.6,183.78,142.24,181.05Z"/><path class="cls-4" d="M199.39,195.66c-6.4,2.14-13.11,1.72-18.81-2.13-6-4-9-10.66-9.62-17.71a40.08,40.08,0,0,1,.79-11.66,56.33,56.33,0,0,1,1.46-5.61,39.55,39.55,0,0,0,1.69-5.1c.62-3.67-3.09-7.86-6.74-5.25-3.1,2.21-2.24,8.5,2.36,7.72,4.45-.75,4.21-7.64-.48-7.16l-.3,0L173,150.4q-4.65-.45-5.5,2.65l-.44,1.23c-.32.93-.63,1.87-.91,2.81q-.72,2.39-1.23,4.81a51.76,51.76,0,0,0-1.11,10.75c0,6.67,1.91,13.9,6.15,19.17,6.48,8.05,22.16,14.46,30.19,5a.7.7,0,0,0-.74-1.12Z"/><path class="cls-4" d="M126.77,174.58c-1.07,12.09,13.81,18.16,23.67,14.48,13.82-5.16,22.14-22.49,21.42-36.63-.22-4.25-7.26-5-7.69-.53-.63,6.53-1.39,12.55-4.27,18.55a28.19,28.19,0,0,1-9.84,11.72c-7.95,5.05-20.1,2.4-22.48-7.64-.1-.39-.78-.36-.81.05Z"/><path class="cls-4" d="M276.56,153a11.46,11.46,0,0,0-5.83,3.21,17.48,17.48,0,0,0-3.51,5.83,17.94,17.94,0,0,0,.53,13.92c.7,1.45,2.71,2.8,4.28,1.47,6.32-5.35,9.3-13.16,9.07-21.37a3.65,3.65,0,0,0-4.78-3.19c-10.78,3.89-13.19,18.19-5.93,26.37,1.57,1.77,4.27,1,5.76-.31a24,24,0,0,0,7.37-12.88c.63-2.88-1.74-4.89-4.36-5a10.29,10.29,0,0,0-10.49,10c-.17,4.79,7,4.8,8.08.55a2.56,2.56,0,0,1,3-2.22l-4.36-5a17.16,17.16,0,0,1-5.27,9.11l5.76-.31c-3.52-3.77-1.72-11.23,2.81-13.44l-4.78-3.19c.86,6.26-1.38,12-5.54,16.6l4.51.34c-4.11-6.14-1-14.73,4.45-19a.84.84,0,0,0-.73-1.5Z"/><path class="cls-4" d="M99.64,126.84c3.65-2.73-1.74-7.21-5-4.32-2.08,1.82-2.94,5.08-3.41,7.68a24.28,24.28,0,0,0,.46,10.11,3.13,3.13,0,0,0,3.92,1.94c8.45-2.79,13-12.94,9.71-21.17a3.57,3.57,0,0,0-4.43-2.19,11.67,11.67,0,0,0-7.62,7.72c-1.24,3.84-.67,8.9,3.64,10.34,3.76,1.25,9.48-.67,9.66-5.23A6.44,6.44,0,0,0,98,125.44c-3.67,1.35-2.8,7.75,1.4,7a15.43,15.43,0,0,0,.19-2.58,9.68,9.68,0,0,1-1-.31l1.82,2.11a4.59,4.59,0,0,1,2.66-6.18l-4.44-2.19a9.9,9.9,0,0,1-5.06,13.06l3.92,1.94c-1.34-4.08-1.83-10.41,1.55-13.63l-1.31.64c0-.18.09-.36.13-.55-.8,1.16.4,3.07,1.76,2Z"/><path class="cls-1" d="M512.77,437A127.83,127.83,0,0,1,532,418.76a.69.69,0,0,0-.77-1.15A117.69,117.69,0,0,0,496.08,453a111.74,111.74,0,0,0-11.32,22.35c-2.31,6.3-4.18,13.05-4.35,19.81,3.51,3.77,5.94,8.4,8.37,13.08.22-.19.45-.37.67-.54-4-9.26-1.81-21.47,1.2-30.74A118.47,118.47,0,0,1,512.77,437Z"/><path class="cls-1" d="M252.48,205.65c2.24,3.74,7.56,4.67,11.48,6,5.86,2,11.74,3.83,17.61,5.73,11.45,3.68,22.86,7.45,34.37,10.91,7.89,2.38,11.19-9.81,3.39-12.29a355,355,0,0,0-34.89-9q-8.61-1.82-17.29-3.22c-4.31-.7-10.3-2.55-14.17,0a1.44,1.44,0,0,0-.5,1.93Z"/><path class="cls-1" d="M243.59,224.5c2.84,4.42,7.59,7.87,11.47,11.37,4.21,3.79,8.7,7.21,13.21,10.63A255.87,255.87,0,0,0,298,265.67c6.17,3.46,11.59-5.83,5.54-9.47-9.82-5.91-19.53-12-29.33-17.94-4.76-2.88-9.43-5.89-14.23-8.69-4.55-2.66-9.12-6.28-14.12-8a2,2,0,0,0-2.22,2.89Z"/><path class="cls-1" d="M75.84,155c-3-3.7-8-5.81-12.21-7.86-5.08-2.49-10.17-5-15.27-7.45-4.84-2.32-9.74-4.54-14.57-6.89-5-2.44-10-5.34-15.43-6.84-7.21-2-10.58,7.59-4.88,11.56,4.58,3.19,10.16,5.06,15.31,7.15s10.52,4.32,15.89,6.19c5,1.76,10.18,3.4,15.32,4.9,4.71,1.38,10.16,3.13,15.07,2.14,1.41-.28,1.51-2,.77-2.9Z"/><path class="cls-1" d="M58.59,177.3c-3-1.72-6.82-1.43-10.23-1.62-4.43-.23-8.86-.36-13.29-.65A165.75,165.75,0,0,1,8.56,171.1c-8.68-2-12.2,11.75-3.64,13.2a129.89,129.89,0,0,0,29.2,1.91,89.39,89.39,0,0,0,13.53-1.81c3.8-.82,8.58-1.61,11.26-4.6a1.61,1.61,0,0,0-.32-2.5Z"/></g></g></svg>