<svg xmlns="http://www.w3.org/2000/svg" viewBox="0 0 952.6 432.67"><defs><style>.cls-1{fill:#9f7a3c;}.cls-2{fill:#be9a5c;}.cls-3{fill:#f6a431;}.cls-4{fill:#1d1d1b;}</style></defs><title>lightBrownCat</title><g id="Layer_2" data-name="Layer 2"><g id="Layer_1-2" data-name="Layer 1"><path class="cls-1" d="M312.65,194.79c-2.43,2.85-7.08,1.3-10.27-.67-28.22-17.47-42.33-50.06-58.95-78.79-4.79-8.28-11.14-17.19-20.62-18.38-7.34-.92-14.65,3.43-18.79,9.56s-5.53,13.74-5.66,21.13c-.62,36.58,26.23,67.12,51.43,93.64l46.73,49.17Z"/><path class="cls-1" d="M387.61,108.87C377.88,74.28,336.13,55,329.55,19.63c-.58-3.15-.83-6.53.57-9.41s4.43-4.89,7.44-6.29c17.31-8,38.44-2.94,54.08,8s26.94,26.89,37.91,42.51l63.06,89.82Z"/><path class="cls-1" d="M853.67,266.57c2.36,2,5.85-.14,8.06-2.27,15.69-15.14,26.47-34.84,42.45-49.68,8.68-8.07,20.62-14.88,32-11.37,11.87,3.68,18,17.87,16.17,30.17s-9.54,22.85-17.84,32.09C912.41,290,885,309,857.91,327.76Z"/><path class="cls-1" d="M670.2,199.23c20.6-27.17,42.17-55.29,58.87-85.09,13.5-24.08,25.89-53.42,52-66.66,8-4.07,18.25-6.3,25.64-1.18,6.15,4.26,8.41,12.57,7.48,20s-4.51,14.21-8,20.82c-23.68,44.57-44,93.56-70.5,136.13-3.15,5.07-6.51,10.12-11,14.07-12.23,10.74-30.06,11.31-46.34,11.33Z"/><path class="cls-2" d="M499.24,122.2a127.82,127.82,0,0,0-169.61-8.68c-38.37,30.74-56.2,83.26-49.84,132s34.93,93.11,73.35,123.78,86,48.42,134.51,56.43c84.66,14,178.52-3.6,239.55-63.93,14.12-14,26.95-32.2,24.71-51.93-2.1-18.6-17.71-33.58-35.35-39.86-39.33-14-77.19,10.78-115.68,3.65-34.94-6.47-47.94-60.94-60.78-88.31C529.42,162.59,517.33,140,499.24,122.2Z"/><path class="cls-3" d="M618.27,292.06c2.57,13.94,9.94,26.51,17.92,38.22a334,334,0,0,0,41.15,49.37c11.11,11,24.88,21.84,40.44,20.51,14.21-1.21,25.86-12.82,31.14-26.07s5.31-27.94,4.74-42.18c-.89-22-3.19-44.46-12.75-64.27s-27.66-36.7-49.49-39.47C654.39,223.49,610.75,251.26,618.27,292.06Z"/><path class="cls-2" d="M873.13,152.49c24.89,22.56,25.6,70.06,26,101,.55,38-5,76-14.66,112.71-5.29,20.11-13.17,40.89-29.64,53.59-15.38,11.86-36.24,14.77-55.43,11.77s-37.1-11.32-54.4-20.15c-25.26-12.89-50.17-27.29-70.39-47.16C620.23,310.78,603.13,201.55,646,137.44c4.23-6.33,9.15-12.49,15.84-16.1,13.66-7.36,30.28-2.3,45.58.27,48.65,8.18,98.18-4,144.34,18C859.28,143.21,866.94,146.88,873.13,152.49Z"/><path class="cls-4" d="M744.17,146.2c10.15,1.14,20.52,2.52,29.76,7.16,4.17,2.08,8.15,4.86,10.57,8.94s3,9,2.67,13.6c-.4,5,7.22,6.13,7.69,1.13a29.2,29.2,0,0,0-3.28-17.34c-2.92-5.17-7.63-8.72-12.91-11.27-10.6-5.13-23.45-7.35-34.58-2.93a.37.37,0,0,0,.08.71Z"/><path class="cls-4" d="M855.85,247.48c1.59.34,3.32-1.49,4.82-1.95a10.91,10.91,0,0,1,6.4.14c4.62,1.5,8,5.55,10.43,9.53a39.17,39.17,0,0,1,4.65,29.11c-1.08,4.76,6.25,5.69,7.42,1.09,3.37-13.15-.05-28.17-9.49-38.09-4.2-4.41-9.92-8.12-16.28-7.22a12.72,12.72,0,0,0-7.07,3.29c-.66.66-3,3.63-.88,4.1Z"/><path class="cls-4" d="M884,163.56a13.69,13.69,0,0,0-.32-7.56c-2.16-7.53-14.25-20.24-21.62-9.77-3.61,5.12,1.75,14.57,5.49,18.05C874.43,170.69,882.21,169.8,884,163.56Z"/><path class="cls-2" d="M311.91,146.19c6.23-12.37,1.54-28.26-8.4-37.9S279.5,94.35,265.72,93a112.85,112.85,0,0,0-74.39,19c-18.76,12.87-33.08,31.06-47.62,48.56s-30.07,34.95-50.2,45.55-46,13.1-65.06.68C9,194.09,1,169.2.1,146c-1.24-31.34,9-64.53,33.23-84.5,30.05-24.81,72.88-24.12,111.85-23.7,39.33.42,79.14-.65,117.45,8.28,15.12,3.53,30.22,8.79,42.27,18.59,19.05,15.5,27.89,40,35.88,63.19Z"/><path class="cls-1" d="M640.59,242.19c-.83,4.5-1.38,9.47,1,13.34,3.12,5,9.75,6.11,15.6,6.59a296.49,296.49,0,0,0,58.82-1c3-.35,6.15-.8,8.6-2.57,5.71-4.1,4.91-13,1.74-19.24C720.19,227.05,709,217.79,701.83,206c-12.77-21.15-27.61-39-43.79-11.88C649.61,208.19,643.56,226,640.59,242.19Z"/><path class="cls-1" d="M746.66,377.69c-.82,4.49-1.38,9.47,1.05,13.34,3.12,5,9.76,6.11,15.6,6.59,15.31,1.28,58.42,8.24,67.7-8.37,9.43-16.86-16-36-23.1-47.78-5.19-8.6-15.21-31.6-28.26-28.8C762.73,316.31,749.14,363.7,746.66,377.69Z"/></g></g></svg>