<svg xmlns="http://www.w3.org/2000/svg" viewBox="0 0 561.1 598.62"><defs><style>.cls-1{fill:#ee772a;}.cls-2{fill:#f49e5a;}.cls-3{fill:#e74041;}.cls-4{fill:#1d1d1b;}.cls-5{fill:#e28241;}</style></defs><title>orangeCat</title><g id="Layer_2" data-name="Layer 2"><g id="Layer_1-2" data-name="Layer 1"><path class="cls-1" d="M403.81,300.63c13.54,10.36,33.27,8.27,48.51.61s27.57-19.93,41.35-30c12.54-9.14,29.49-16.58,43.05-9,11.35,6.3,15.25,23,7.88,33.68-9.94,14.42-31.35,13.32-47.06,21.09-16.29,8.06-26.06,25.7-42,34.38-17.76,9.64-39.43,6.45-59.34,3-6.42-1.11-14.71-4.75-13.38-11.13Z"/><path class="cls-1" d="M456.38,519.18l28.42-5c8.74-1.53,18.7-2.77,25.61,2.78,8.12,6.51,7.58,19.8,1.48,28.23s-16.05,13-25.75,16.81a303.17,303.17,0,0,1-89.68,19.79Z"/><path class="cls-1" d="M330.08,130.13a114.81,114.81,0,0,0-49.71-37.32C267,87.57,233,77.11,219.89,87.44c-12.06,9.53-4.22,44.14-.64,56.42,6.07,20.84,18.07,40,34.78,54,3.63,3,7.53,5.85,12,7.44Z"/><path class="cls-1" d="M491.37,106.2c4.25-35-9.07-71.56-34.37-96-14.59-14.1-22.69-13.47-36.27,1.29a92.22,92.22,0,0,0-23,46.53,92.17,92.17,0,0,0,15.85,68.48Z"/><path class="cls-2" d="M288.14,207.19,257.5,251.07c-35.9,51.42-72.68,104.88-84.34,166.5s8.94,134,64.26,163.52c24.64,13.15,53.28,16.56,81.19,17.36,32.91.93,66.85-1.69,96.46-16.07s54.22-42.51,56.8-75.33c2.85-36.21-20.15-68.56-37.81-100.31a385.6,385.6,0,0,1-48.35-179.48Z"/><path class="cls-3" d="M293.4,311.91c23.92,14.29,52.75,18.94,80.53,16.86,16.63-1.24,35.21-6.32,42.89-21.11,8.34-16.07-.28-35.93-12.1-49.64-29-33.61-80.22-48.16-122.61-34.67C228.88,240.29,258.08,290.82,293.4,311.91Z"/><path class="cls-2" d="M501.45,246.94c-11.21,15-26.08,26.44-41.63,35.79-48.27,29-108.09,39.43-156.82,15.61s-80.7-86.81-63.77-143.4c9.14-30.59,25.06-54.21,44.94-71.57C314.55,56.81,354.17,44.86,393,45,494.39,45.2,590.32,127.7,501.45,246.94Z"/><path class="cls-1" d="M227.51,562.13c-12.91,9.37-60.19-16.57-72-22.6-20.31-10.39-40.68-22.16-54.81-40.08-14.58-18.51-21-41.81-22.24-65.6a183.34,183.34,0,0,1,.45-24.92c.16-2,.36-4,.58-5.92a364,364,0,0,1,6.94-38.89c2.43-10.81,5.12-21.58,7.63-32.38,2.16-9.27,4.19-18.56,5.82-27.94.21-1.26.41-2.58.57-3.91.69-6.3.22-12.94-4.5-16.82a13.12,13.12,0,0,0-8.4-2.78,20.82,20.82,0,0,0-2.49.1,28.34,28.34,0,0,0-5.39,1.12c-7.3,2.27-13.71,6.42-20,10.81-4.72,3.29-9.38,6.7-14.32,9.59-11.56,6.73-27.36,10-37.54,1.34-12.68-10.8-7.86-31.38-.07-46.1,8.88-16.8,20.31-33.09,34.08-45.32,9.48-8.44,20.07-15,31.71-18.4,14.6-4.33,30.85-3.84,48.62,3.76a57.16,57.16,0,0,1,18.5,12.55c8.2,8.29,13.66,18.82,17.24,30.37,6.94,22.45,6.76,48.8,5.54,70.26-.12,2.09-.26,4.19-.41,6.27-.84,11.49-2.14,22.94-3.5,34.39-2.1,17.69-4.31,35.36-5.1,53.08-.29,6.63-.39,13.25-.2,19.89a185.87,185.87,0,0,0,1.51,19.27c4.65,35.38,19.92,67.69,50.62,88.54C213.59,536.72,242.67,551.11,227.51,562.13Z"/><path class="cls-3" d="M463.28,206a39.48,39.48,0,0,1,1.14,37.6c-8.66-.25-16.1-8.88-15.08-17.48a279.13,279.13,0,0,0,2.32-27.84C459.22,201.75,455.72,202.53,463.28,206Z"/><path class="cls-4" d="M442.68,184.73c4.67,9.45,8.3,21.94,3.17,31.93-3.61,7-12.81,12.72-20.58,8.89-4.75-2.34-8.93,4.62-4.19,7.16,11.27,6,24.88.45,31.13-10.2,7.59-13,1.16-28.81-8.06-38.92-.75-.82-1.92.23-1.47,1.14Z"/><path class="cls-4" d="M445.05,185.87c3.14,9.55,10.5,21.45,20.85,24.21,9.34,2.5,20.41-1.34,23.41-11.1,1.75-5.69-7-8-8.86-2.44-2.2,6.49-10.52,7.14-16.06,5.07-8.09-3-12-10.76-17.48-16.82a1.12,1.12,0,0,0-1.86,1.08Z"/><path class="cls-1" d="M412.24,87.26c-.41,7-5.16,14.29-12.15,15.26-10.36,1.45-17-10-23.5-18.27a54.47,54.47,0,0,0-28.94-19c-.51,10.57,8.08,19,14.92,27.05s12.49,20.16,6.18,28.65c-6.57,8.84-21.06,6.06-29.33-1.22s-13.3-17.7-21.68-24.83c-9.26-7.86-21.23-10.76-33.57-11.54C314.55,56.81,354.17,44.86,393,45a122.89,122.89,0,0,1,13.68,22.16C409.76,73.44,412.66,80.21,412.24,87.26Z"/><path class="cls-4" d="M460.87,128.19c-1.85-5.84,2.53-13.93,8.1-16.38,5.34-2.35,11.84.17,14.89,4.9,4.12,6.42,13.9.76,10.24-6-5.63-10.39-19.68-14.78-30.07-8.81s-11.48,17.81-6.34,27.62a1.75,1.75,0,0,0,3.18-1.34Z"/><path class="cls-4" d="M361.57,171.67c-7-9.42-22.08-14.3-32.88-9.16-9.9,4.71-15.14,16.41-10.19,26.49,3,6.05,12.2.72,9.09-5.32-2.83-5.48,2.72-11.72,7.79-13.25,8.3-2.52,15.69,2.75,23.22,5.11,2,.64,4.36-2,3-3.87Z"/><path class="cls-4" d="M442.82,169.74c-8.35.24-26.38,10.67-17.69,20.81,3.76,4.38,9.92,4.4,14.6,1.55,5.43-3.31,8.95-9.38,10.83-15.27,1-3-1.14-5.76-3.83-6.75-9.79-3.6-20.69,3.84-21.11,14.1-.25,6.12,9.44,7.53,10.78,1.45.76-3.47,3.79-6.12,7.41-5L440,173.91a19.41,19.41,0,0,1-3.69,8.05c-.6.73-3.78,4.22-4.76,2.55-.54-.92,4-5.12,4.73-5.77a31.74,31.74,0,0,1,7.75-4.6c2.19-1,1-4.47-1.19-4.4Z"/><path class="cls-1" d="M496.45,160.65c4.95-1.77,9.4-5.12,13.91-7.8q7.33-4.38,14.78-8.56c10-5.6,20-11,30.33-15.89,8-3.76.46-17-7-11.94-9.45,6.44-19,12.74-28.28,19.39q-6.62,4.74-13.13,9.62c-4.39,3.3-9.69,6.53-13.19,10.78-1.5,1.82-.16,5.37,2.56,4.4Z"/><path class="cls-1" d="M505,176.23c8.72-2.51,17-7.29,25.4-10.81,8.7-3.68,17.6-6.79,26.55-9.78,8.1-2.71,3.35-14.66-4.61-10.93-8.44,4-16.78,8.15-25.17,12.22-8.21,4-17.46,7.68-24.71,13.26-2.75,2.12-1.37,7.16,2.54,6Z"/><path class="cls-1" d="M368.8,209.54c-4.37-.3-8.88,1.24-13.1,2.3-4.87,1.23-9.7,2.6-14.48,4.15-9.28,3-18.19,6.81-27.21,10.49-7.08,2.88-2.61,13.3,4.05,9.62a192.46,192.46,0,0,1,26.4-11.69c4.44-1.65,8.91-3.23,13.42-4.67,4.16-1.34,8.72-2.13,12.5-4.38,2.78-1.66,1.43-5.62-1.58-5.82Z"/><path class="cls-1" d="M375.93,223c-4.07-1.37-7.21.73-10.77,2.6-4.17,2.2-8.17,4.71-12.22,7.13-8.36,5-16.66,10.11-24.93,15.26-6.34,3.94-.41,14.09,5.85,10q12.66-8.25,25.18-16.71c4.18-2.83,8.4-5.6,12.39-8.7,3-2.34,5.25-4.08,5.72-8a1.69,1.69,0,0,0-1.22-1.6Z"/><path class="cls-2" d="M85.09,280.39a28.34,28.34,0,0,0-5.39,1.12c-7.3,2.27-13.71,6.42-20,10.81-.16-4.34-.56-8.73-1.09-13-1.07-8.84-3.77-19.68-6.32-29-3-11.06-6.21-22.08-9.1-33.16q-.69-2.64-1.34-5.3c9.48-8.44,20.07-15,31.71-18.4,0,.11,0,.22,0,.33,1,6,2.21,11.87,3.51,17.76C79.61,223,82.4,234.34,84,246S86.33,268.79,85.09,280.39Z"/><path class="cls-2" d="M157.89,240.11l-.63.55q-11.58,10.34-22.5,21.39c-7.41,7.54-14.45,15.43-21.53,23.26-4.29,4.75-8.33,9.87-12.75,14.58.69-6.3.22-12.94-4.5-16.82a13.12,13.12,0,0,0-8.4-2.78c2-3.74,4.19-7.39,6.27-11a263.06,263.06,0,0,1,17.91-26,379.39,379.39,0,0,1,28.89-33.55C148.85,218,154.31,228.56,157.89,240.11Z"/><path class="cls-2" d="M163,316.64c-.84,11.49-2.14,22.94-3.5,34.39a90.08,90.08,0,0,1-15.26,7.45c-11.67,4.46-24.75,6.24-37.16,6.8a107.49,107.49,0,0,1-17.75-.82l-2.89-.34c2.43-10.81,5.12-21.58,7.63-32.38.64.09,1.27.18,1.33.2.93.11,1.86.19,2.78.28,3,.26,5.93.44,8.9.56,10.2.41,18.32-.16,27.32-2.34a112.65,112.65,0,0,0,12.34-3.65,3.75,3.75,0,0,0,.41-.14h.05c1-.46,2.05-.95,3.05-1.46,1.76-.93,3.48-1.93,5.14-3A62.51,62.51,0,0,0,163,316.64Z"/><path class="cls-2" d="M155.73,443.27c-13.83,7.07-30.41,9.22-45.42,7-10.84-1.59-20.7-7.22-29.08-14.08-.91-.75-1.82-1.53-2.74-2.36a183.34,183.34,0,0,1,.45-24.92c4.5,3.1,8.7,6.7,13.87,8.76a69.35,69.35,0,0,0,11.56,3.23l1.12.2.21,0,2.79.24c1.89.18,3.77.39,5.67.46,2.2.08,4.39,0,6.59-.15.47,0,.93-.08,1.14-.1H122c.92-.16,1.81-.36,2.71-.55a58.66,58.66,0,0,0,5.67-1.55c.93-.3,1.85-.62,2.78-1,.63-.24,1.71-.69,1.86-.74h0A61.68,61.68,0,0,0,145,412c.11-.07.7-.51,1.15-.84l.11-.09.07-.05,1.2-1c1.68-1.43,3.35-2.87,5-4.36a18.6,18.6,0,0,1,1.92-1.55c-.29,6.63-.39,13.25-.2,19.89A185.87,185.87,0,0,0,155.73,443.27Z"/><path class="cls-5" d="M422.48,577.72c36.34-24.8,64.75-69.39,48.85-114.3-6.74-19-20.39-36-39.24-44-22.45-9.54-48-4.38-68.44,7.68-25.29,14.92-42.4,39.88-58,64-3.31,5.13,4.86,9.87,8.17,4.78,12.87-19.82,26.52-40.17,45.66-54.52,17.17-12.87,39.89-21.05,61.35-15.79,18.6,4.56,32.82,19.23,40.31,36.44,7.93,18.21,8.06,38.11,2.21,57-7.15,23-22.82,43-41.16,58.35-.23.2.07.59.32.42Z"/><path class="cls-5" d="M339.33,351.76c13.3,28.4,34.12,53.26,57.45,74,4,3.58,10-2.56,5.87-5.87-24.4-19.67-44.35-43.19-62.71-68.47a.35.35,0,0,0-.61.36Z"/></g></g></svg>