<?xml version="1.0" encoding="utf-8"?>
<!-- Generator: Adobe Illustrator 23.0.5, SVG Export Plug-In . SVG Version: 6.00 Build 0)  -->
<svg version="1.1" id="Layer_1" xmlns="http://www.w3.org/2000/svg" xmlns:xlink="http://www.w3.org/1999/xlink" x="0px" y="0px"
	 viewBox="0 0 1221.1 1074.4" style="enable-background:new 0 0 1221.1 1074.4;" xml:space="preserve">
<style type="text/css">
	.st0{opacity:0.28;fill:#FABB57;}
	.st1{opacity:0.28;fill:#FFD556;}
	.st2{fill:#FABB57;}
	.st3{fill:#FFD556;}
	.st4{fill:#FFE498;}
	.st5{fill:#1D1D1B;}
	.st6{fill:#EE772A;}
</style>
<circle class="st0" cx="610.5" cy="537.2" r="284.6"/>
<circle class="st0" cx="743.1" cy="505.5" r="142.3"/>
<circle class="st0" cx="434.1" cy="754.3" r="142.3"/>
<circle class="st0" cx="273.4" cy="647.8" r="142.3"/>
<circle class="st0" cx="868.1" cy="297.1" r="71.1"/>
<circle class="st0" cx="513.3" cy="242.8" r="54.3"/>
<circle class="st0" cx="273.4" cy="319.1" r="88"/>
<circle class="st1" cx="755.2" cy="790.1" r="88"/>
<title>yellowCat</title>
<g>
	<g id="Layer_1-2">
		<path class="st2" d="M781.7,605.5c21.8-5.9,43.2-22.1,54.3-41.6c13.4-23.5,11.8-56.3-8.1-74.6c-17.9-16.5-47.9-20.6-57.5-43
			c-7.9-18.6,4.6-41.3,23-49.6c18.4-8.3,40.2-4.8,58.7,3.4c45.6,20.2,76.8,71.6,68.8,120.8c-4.3,26.8-19.2,51.1-38.6,70.1
			c-18.6,17.9-41.1,31.3-65.8,38.9c-29.3,9.2-100.3,21.1-123.9-7.8c-13.8-17,6.6-16.7,21.9-16.5C736.8,606,759.7,611.4,781.7,605.5z
			"/>
		<path class="st3" d="M395,607.9c1,5.9,2.1,11.8,3.1,17.6c5.8,31.4,11.8,62.8,18,94.1c5.3,26.5,10.9,53.7,25.1,76.7
			c1.5,2.5,3.4,5.1,6.2,6c8.5,2.7,11.9-10.6,10.6-19.4c-1.7-11.2-3.4-22.3-5.1-33.5c-0.5-2.2-0.5-4.4,0-6.6c0.2-0.7,0.5-1.3,0.9-1.8
			c1.8-2.5,5.3-3,8.3-2.8c16.2,0.6,29.6,13.2,38.5,26.7c1.3,2,2.6,4.1,3.9,6.2c7.1,11.9,13,24.5,22.3,34.8c3.4,3.8,9.2,7.4,13.2,4.2
			c1.8-1.4,2.5-3.7,3-5.9c2.4-10.3,1.8-21-1.7-31c75.4,14.1,152.9,12,227.4-6.2c19-4.7,45-10.8,61.3,3.8
			c10.6,9.4,17.8,49.9,34.1,24.6c11.9-18.3-6.9-53.3-13.7-70.8c-9.9-25.4-21.9-49.9-36-73.2c-15.3-25.3-33.5-49.7-57.8-66.5
			c-19.3-13.3-41.8-21.4-64.4-27.9c-35.5-10.2-72-16.8-108.8-19.7c-6-0.5-12-0.9-18-1.5c-7.9-0.7-15.7-2.1-23.4-4.2
			c-12-3.5-23-9.5-34.1-15.2c-20.8-10.6-42.1-20-64-28.1c-6.7-2.5-13.7-4.9-20.8-3.8c-12.8,1.9-21.1,14.5-25.6,26.6
			C386.5,541.9,389.5,575.3,395,607.9z"/>
		<path class="st4" d="M434.6,648.2c2.8,32.1,9,63.9,18.4,94.7c0.2-0.7,0.5-1.3,0.9-1.8c1.8-2.5,5.3-3,8.3-2.8
			c16.2,0.6,29.6,13.1,38.5,26.7c1.3,2,2.6,4.1,3.9,6.2c-10.9-32.8-18.6-66.6-23.2-100.8c-2.2-16.6-3.9-34.2-13.2-48.1
			c-3-4.5-7.1-8.7-12.3-9.9c-8-1.8-16,4.3-19.3,11.8C433.4,631.5,433.9,640,434.6,648.2z"/>
		<path class="st2" d="M457.8,353.8c3.4-21.7,3.6-43.8,0.7-65.6c-1.3-9.5-3.7-19.8-11.7-25.2c-32,19.5-48.8,56.7-57.3,93.2
			c-1.5,6.5-2.4,14.4,2.5,18.9L457.8,353.8z"/>
		<path class="st2" d="M571.4,471.3c19-11.1,36.2-24.9,51.3-40.9c6.5-6.9,13-15.4,12.1-24.9C599.5,393,560,403.5,526.4,420
			c-6,2.9-12.7,7.2-13.1,13.9L571.4,471.3z"/>
		<path class="st5" d="M395,607.9c16.5,8.8,35.3,12.6,53.8,14.4c23.1,2.2,47.2,1.1,68-9.7c23.8-12.4,46.9-45.5,48.7-76.8
			c-7.9-0.7-15.7-2.1-23.4-4.2c-12-3.5-23-9.5-34.1-15.2c-20.8-10.6-42.1-20-64-28.1c-6.7-2.5-13.7-4.9-20.8-3.8
			c-12.8,1.9-21.1,14.5-25.6,26.6C386.5,541.9,389.5,575.3,395,607.9z"/>
		<path class="st3" d="M475.6,594.4c17.8-2.3,35-7.9,50.8-16.3c41.2-22.4,66.3-72.6,51.7-118.4c-10.5-32.8-33.4-60.7-61-81.3
			c-23.2-17.4-50.3-30.3-79.1-33.9c-53.1-6.6-110,22.8-131.1,71.9c-15.1,35.3-6.9,69.9,9.2,102.8C344.2,576.8,413.7,603,475.6,594.4
			z"/>
		<path class="st5" d="M389.2,445.2c-2.7,2.1-5.8,3.8-9.1,5c-3.4,1.4-6.9,2.4-10.5,2.9c-6.8,1.1-13.8,0.1-20-2.9
			c-11.1-5.4-18.7-18.4-15.6-30.7c1-4.1,7.4-2.4,6.4,1.8c-2.5,9.8,4,19.8,12.7,24.2c5.2,2.7,11.5,3.3,17.2,2.7
			c3-0.3,5.9-0.9,8.8-1.7c3.1-0.9,5.9-2.3,8.9-3.3c0.7-0.1,1.3,0.3,1.5,1C389.6,444.5,389.5,444.9,389.2,445.2L389.2,445.2z"/>
		<path class="st5" d="M465.8,489.5c-5.2,10.2-3.1,23.8,5.6,31.5c8.9,7.9,22.7,7.3,31.9,0.4c2.8-2,6.3,2.5,3.7,4.8
			c-8.7,7.5-21.3,8.9-31.7,4.5c-10.5-4.4-16.7-14.7-17.1-25.8c-0.3-6,1.4-11.9,4.8-16.9c0.4-0.8,1.4-1,2.2-0.6
			C466,487.8,466.2,488.8,465.8,489.5L465.8,489.5L465.8,489.5z"/>
		<path class="st5" d="M396.9,494.2c3.5,1.1,3.7,5.9,1.4,8.3c-1.6,1.6-4.1,0.7-5.8-0.3c-1.8-1.1-3.2-2.6-4.1-4.5
			c-1-2.2-1.6-4.7,0.9-6.3c1.6-0.9,3.6-1.1,5.4-0.4c1.8,0.7,3.3,2,4.2,3.7c0.9,1.9,1,4.8-0.8,6.2c-2,1.5-5.4,0.8-7.4-0.5
			c-2.2-1.5-3.6-3.9-3.7-6.5c-0.1-1.8,1.6-3,3.1-3.1c4.1-0.3,11.3,2.8,9.8,8c-0.6,2.1-2.8,3.4-4.9,2.8c-0.4-0.1-0.7-0.3-1.1-0.5
			c-2.5-1.6-2.4-4.7-0.1-6.4c1.4-0.8,3.2-0.5,4.2,0.8c1,1.3,0.9,3.1-0.3,4.2l-0.1,0.1c0.3-0.5,0.6-1,0.8-1.4v0.2v-1.7l-2.8-1.6
			l-1.4,0.8l-0.1,0.1l-0.4,1.6c0,0.6,0.4,0.3-0.2,0c-0.3-0.1-0.6-0.4-0.9-0.5c-0.8-0.3-1.6-0.4-2.4-0.3l3.1-3.1
			c0.2,1,1.1,1.8,2.2,1.8l-1.8,1.4c-0.2,0.4-0.1,0.2-0.2-0.1c0.2,0.5-0.3-0.3,0,0c-0.1-0.1-0.3-0.3-0.4-0.4
			c-0.2-0.2-0.5-0.3-0.9-0.4c-0.1,0-0.3,0.2,0-0.1l0.8-1.9c0,2.5,1.7,4.6,4.1,5.2l-1.6,0.2c1.4-0.8,0.9-2.6,0.2-3.8
			c-0.3-0.5-0.1-1.2,0.5-1.5C396.5,494.2,396.7,494.2,396.9,494.2z"/>
		<path class="st5" d="M395.9,500.3c-3.9,9.1-6.7,19.5-4.1,29.4c1.8,6.9,6.6,14.5,14.4,15.1c3.9,0.3,4,6.2,0,6.1
			c-10.4-0.4-17.3-9.5-19.5-18.9c-2.7-11,0.2-24.2,7.4-33C395,497.8,396.4,499.2,395.9,500.3L395.9,500.3z"/>
		<path class="st5" d="M393.3,498.5c0.2,5.6-3.9,11.3-8,14.8c-4.7,4-10.7,6.1-16.9,5.9c-12.6-0.8-23.3-11.1-24.3-23.7
			c-0.3-3.3,5.3-4.1,5.8-0.8c1.5,9.2,9.1,17.6,18.8,18.1c4.7,0.2,9.4-1.1,13.4-3.7c4.4-2.8,6.7-6.8,9.3-11.1
			c0.3-0.5,0.9-0.6,1.4-0.3C393.1,497.9,393.3,498.2,393.3,498.5L393.3,498.5z"/>
		<path class="st6" d="M468.8,556.3c2.5,6.4,9.5,11.9,14.6,16.4c5.9,5.2,12.3,10,19,14.1c6.6,4.1,12.9-6.7,6.1-10.4
			c-6.5-3.5-13-7.3-19.1-11.5c-5.5-3.7-11.1-9.6-17.3-12c-1.4-0.4-2.9,0.5-3.3,1.9C468.7,555.3,468.7,555.8,468.8,556.3L468.8,556.3
			z"/>
		<path class="st6" d="M455.4,573.2c0.5,5.5,4.6,10.5,7.3,15.2c3.3,5.6,6.5,11.3,9.9,16.9c3.9,6.4,14.2,0,9.9-5.8
			c-3.8-5-7.7-10-11.6-14.9c-3.4-4.3-6.9-10.9-11.9-13.4C457.5,570.4,455.2,571.3,455.4,573.2z"/>
	</g>
</g>
</svg>
