<svg xmlns="http://www.w3.org/2000/svg" viewBox="0 0 623.25 548.36"><defs><style>.cls-1{fill:#fabb57;}.cls-2{fill:#ffd556;}.cls-3{fill:#ffe498;}.cls-4{fill:#1d1d1b;}.cls-5{fill:#ee772a;}</style></defs><title>yellowCat</title><g id="Layer_2" data-name="Layer 2"><g id="Layer_1-2" data-name="Layer 1"><path class="cls-1" d="M482.76,342.47c21.76-5.91,43.2-22.1,54.33-41.64,13.38-23.47,11.78-56.33-8.09-74.64-17.9-16.48-47.92-20.58-57.46-43-7.91-18.57,4.61-41.29,23-49.55s40.22-4.79,58.68,3.39C598.8,157.26,630,208.64,622,257.83c-4.33,26.77-19.18,51.12-38.56,70.1a164.71,164.71,0,0,1-65.83,38.89c-29.32,9.21-100.34,21.12-123.92-7.77-13.83-16.95,6.59-16.73,21.89-16.45C437.87,343,460.76,348.44,482.76,342.47Z"/><path class="cls-2" d="M96.08,344.93c1,5.92,2.06,11.81,3.14,17.65q8.73,47.1,18,94.11c5.25,26.55,10.87,53.71,25.12,76.72,1.54,2.5,3.4,5.11,6.21,6,8.49,2.69,11.94-10.63,10.61-19.44q-2.53-16.75-5.08-33.52a15.15,15.15,0,0,1,0-6.57,6,6,0,0,1,.92-1.83c1.81-2.45,5.26-3,8.31-2.83,16.23.64,29.58,13.15,38.54,26.7q2,3.06,3.88,6.21c7.08,11.89,13,24.55,22.27,34.8,3.43,3.8,9.21,7.37,13.23,4.21,1.76-1.4,2.5-3.7,3-5.89a55.56,55.56,0,0,0-1.73-31,539.6,539.6,0,0,0,227.37-6.18c19-4.67,45-10.82,61.35,3.78,10.56,9.43,17.75,49.88,34.1,24.62,11.86-18.31-6.9-53.28-13.69-70.75a472.88,472.88,0,0,0-36-73.22c-15.31-25.34-33.48-49.7-57.84-66.52-19.33-13.34-41.79-21.4-64.37-27.88a554.26,554.26,0,0,0-108.78-19.74c-6-.48-12-.86-18-1.46a128.25,128.25,0,0,1-23.36-4.18c-12-3.51-23-9.55-34.12-15.22a610.78,610.78,0,0,0-64-28.14c-6.66-2.49-13.71-4.9-20.75-3.83-12.78,1.94-21.1,14.51-25.56,26.65C87.63,278.85,90.63,312.34,96.08,344.93Z"/><path class="cls-3" d="M135.67,385.15a458.94,458.94,0,0,0,18.45,94.73,6,6,0,0,1,.92-1.83c1.81-2.45,5.26-3,8.31-2.83,16.23.64,29.58,13.15,38.54,26.7q2,3.06,3.88,6.21a550.26,550.26,0,0,1-23.18-100.81c-2.2-16.65-3.91-34.16-13.22-48.14-3-4.5-7.07-8.71-12.34-9.88-8-1.77-16,4.27-19.25,11.75S135,377,135.67,385.15Z"/><path class="cls-1" d="M158.92,90.76a229.32,229.32,0,0,0,.74-65.61C158.4,15.7,155.93,5.34,148,0,116,19.49,99.22,56.71,90.71,93.2c-1.52,6.51-2.44,14.39,2.47,18.91Z"/><path class="cls-1" d="M272.52,208.3a229,229,0,0,0,51.29-40.92c6.52-6.95,13-15.42,12.12-24.91C300.59,130,261.13,140.53,227.49,157c-6,2.94-12.69,7.21-13.09,13.88Z"/><path class="cls-4" d="M96.08,344.94c16.55,8.76,35.32,12.63,53.85,14.38,23.07,2.16,47.18,1.1,68-9.69,23.84-12.37,46.86-45.54,48.73-76.75a128.25,128.25,0,0,1-23.36-4.18c-12-3.5-23-9.55-34.12-15.22a610.78,610.78,0,0,0-64-28.14c-6.67-2.49-13.71-4.9-20.75-3.83-12.79,1.94-21.1,14.51-25.56,26.65C87.63,278.85,90.62,312.34,96.08,344.94Z"/><path class="cls-2" d="M176.71,331.43a149.34,149.34,0,0,0,50.76-16.3c41.15-22.35,66.34-72.55,51.68-118.38-10.5-32.79-33.41-60.67-60.95-81.32C195,98,167.86,85.17,139.07,81.57,86,74.94,29.07,104.35,8,153.49c-15.13,35.29-6.91,69.92,9.16,102.81C45.24,313.77,114.74,340,176.71,331.43Z"/><path class="cls-4" d="M90.32,182.23a32.51,32.51,0,0,1-9.06,5,43.19,43.19,0,0,1-10.52,2.88,34.41,34.41,0,0,1-20-2.89C39.61,181.78,32,168.87,35.14,156.5c1-4.13,7.45-2.38,6.4,1.77-2.49,9.82,4.05,19.78,12.66,24.16,5.22,2.66,11.47,3.26,17.24,2.73a47.78,47.78,0,0,0,8.78-1.69c3.06-.89,5.9-2.31,8.91-3.28a1.23,1.23,0,0,1,1.19,2Z"/><path class="cls-4" d="M166.86,226.54c-5.21,10.19-3.11,23.82,5.6,31.47,8.94,7.85,22.68,7.29,31.93.37,2.75-2.05,6.27,2.52,3.68,4.76-8.66,7.5-21.25,8.9-31.7,4.46s-16.74-14.7-17.09-25.78a27.78,27.78,0,0,1,4.82-16.9,1.6,1.6,0,0,1,2.76,1.62Z"/><path class="cls-4" d="M98,231.2c3.45,1.06,3.66,5.94,1.41,8.29-1.58,1.64-4.09.68-5.8-.33a10.31,10.31,0,0,1-4.07-4.48c-1-2.24-1.59-4.73.85-6.25a6.17,6.17,0,0,1,5.38-.39,7.49,7.49,0,0,1,4.17,3.71c.89,1.9,1,4.82-.83,6.24-2,1.54-5.44.75-7.37-.53A8.32,8.32,0,0,1,88,230.94c-.14-1.8,1.55-3,3.14-3.15,4.1-.33,11.25,2.78,9.81,8a4,4,0,0,1-6,2.32c-2.54-1.58-2.39-4.74-.08-6.42a3.18,3.18,0,0,1,4.16.83,3.23,3.23,0,0,1-.26,4.23l-.15.15c.28-.47.55-.95.83-1.43l0,.18v-1.73l-2.8-1.59-1.43.83-.14.13-.45,1.64c0,.65.45.31-.17,0-.31-.15-.58-.4-.91-.55a4.89,4.89,0,0,0-2.37-.33l3.15-3.14a2.24,2.24,0,0,0,2.21,1.76l-1.81,1.39c-.18.4-.07.23-.17-.05.17.46-.32-.29,0,0a3.65,3.65,0,0,1-.4-.43,1.77,1.77,0,0,0-.85-.39c-.13,0-.34.17,0-.08l.79-1.93a5.29,5.29,0,0,0,4.14,5.19l-1.59.21c1.44-.81.94-2.64.21-3.77A1.11,1.11,0,0,1,98,231.2Z"/><path class="cls-4" d="M97,237.28c-3.94,9.11-6.74,19.46-4.08,29.36,1.84,6.87,6.61,14.49,14.41,15.06,3.88.28,4,6.24,0,6.1-10.36-.36-17.25-9.49-19.53-18.89-2.68-11.05.18-24.2,7.41-33,.89-1.09,2.26.3,1.79,1.39Z"/><path class="cls-4" d="M94.4,235.53c.2,5.61-3.87,11.32-8,14.82a24.16,24.16,0,0,1-16.86,5.88c-12.56-.8-23.31-11.13-24.31-23.68-.27-3.3,5.31-4.11,5.84-.79,1.47,9.2,9.09,17.62,18.75,18.15a22.57,22.57,0,0,0,13.36-3.74c4.45-2.81,6.73-6.76,9.34-11.14a1,1,0,0,1,1.85.5Z"/><path class="cls-5" d="M169.91,293.3c2.53,6.41,9.49,11.94,14.57,16.42a138.92,138.92,0,0,0,19,14.14c6.65,4.09,12.94-6.73,6.1-10.44-6.53-3.54-13-7.29-19.15-11.45-5.53-3.74-11.08-9.58-17.27-12a2.69,2.69,0,0,0-3.29,3.29Z"/><path class="cls-5" d="M156.49,310.24c.53,5.5,4.64,10.49,7.34,15.2,3.25,5.65,6.48,11.29,9.85,16.87,3.87,6.43,14.22,0,9.87-5.77-3.79-5-7.67-10-11.57-14.94-3.42-4.34-6.91-10.86-11.89-13.42-1.46-.76-3.78.13-3.6,2.06Z"/></g></g></svg>